<svg width="425" height="424" viewBox="0 0 425 424" fill="none" xmlns="http://www.w3.org/2000/svg">
<path fill-rule="evenodd" clip-rule="evenodd" d="M229.337 47.7725C219.077 41.712 204.537 41.9256 195.877 47.6692L195.753 47.7514L123.723 87.6791L123.702 87.69C118.879 90.2867 116.729 92.5464 115.894 94.1619C115.194 95.5165 115.276 96.6694 115.974 97.9771C116.774 99.4765 118.389 101.103 120.669 102.681C122.898 104.224 125.493 105.535 127.88 106.501L128.093 106.587L195.57 144.076C212.098 152.511 224.393 147.397 229.187 144.25L229.292 144.181L299.325 104.716L299.473 104.649C304.254 102.476 306.795 100.394 308.027 98.7257C309.148 97.2074 309.215 96.0226 308.933 94.9951C308.6 93.7758 307.634 92.3387 305.937 90.882C304.275 89.4539 302.15 88.2175 299.977 87.3455L299.77 87.2622L299.573 87.1548C281.156 77.0658 242.658 55.6422 229.337 47.7725ZM191.873 41.3453C203.157 33.9494 220.71 33.9841 233.139 41.3267C246.297 49.0994 284.476 70.3489 302.976 80.4852C305.718 81.6102 308.493 83.213 310.809 85.202C313.152 87.2141 315.279 89.844 316.148 93.0179C317.069 96.3837 316.447 99.9183 314.043 103.174C311.771 106.251 308 108.975 302.716 111.396L233.179 150.581C226.609 154.848 211.471 160.623 192.108 150.712L192.051 150.683L124.859 113.352C122.143 112.238 119.124 110.713 116.414 108.837C113.682 106.946 110.976 104.502 109.376 101.503C107.673 98.3133 107.276 94.5423 109.25 90.7227C111.088 87.1686 114.76 84.0077 120.138 81.1091L191.873 41.3453ZM148.359 130.698C149.154 131.001 150.006 131.46 150.843 131.921C157.309 135.485 168.497 141.616 178.073 146.858C182.86 149.478 187.243 151.876 190.429 153.618L195.598 156.445L195.603 156.447C195.603 156.447 195.604 156.448 193.811 159.733L195.604 156.448L195.619 156.456L195.633 156.464C201.643 159.819 208.501 160.589 214.824 160.07C221.086 159.555 226.527 157.799 229.541 156.395L273.507 132.191C277.435 129.504 281.257 130.783 283.185 132.259L302.707 142.992C308.197 145.54 312.037 148.361 314.244 151.549C316.61 154.966 316.938 158.583 315.77 161.892C314.682 164.973 312.41 167.501 310.092 169.426C307.772 171.352 305.116 172.913 302.72 174.031L233.101 212.914C216.063 222.967 198.72 217.184 191.902 212.888L115.372 170.377L115.19 170.245C112.361 168.195 110.376 165.92 109.263 163.427C108.13 160.89 108.01 158.367 108.536 156.079C109.539 151.714 112.804 148.444 115.247 146.743L115.395 146.64L115.553 146.551L117.383 149.815C115.553 146.551 115.552 146.552 115.553 146.551L118.033 145.157C119.585 144.285 121.759 143.062 124.251 141.659C129.235 138.854 135.484 135.333 140.552 132.464C140.952 132.238 141.3 132.031 141.627 131.836C141.665 131.814 141.704 131.79 141.743 131.767C142.02 131.602 142.312 131.428 142.581 131.276C143.149 130.955 144.046 130.473 145.154 130.302C146.396 130.11 147.47 130.359 148.359 130.698ZM119.384 152.983C117.793 154.131 116.239 155.959 115.825 157.757C115.637 158.576 115.67 159.427 116.092 160.373C116.523 161.337 117.454 162.609 119.404 164.056L195.725 206.451L195.821 206.512C201.076 209.863 215.408 214.685 229.335 206.447L229.375 206.423L299.323 167.356L299.454 167.295C301.424 166.386 303.553 165.129 305.316 163.665C307.125 162.164 308.264 160.683 308.717 159.4C309.089 158.345 309.087 157.242 308.096 155.813C306.964 154.178 304.462 152.044 299.454 149.734L299.334 149.679L278.881 138.434L278.603 138.177C278.6 138.176 278.597 138.174 278.593 138.172C278.546 138.149 278.487 138.13 278.424 138.122C278.37 138.114 278.302 138.113 278.208 138.137C278.116 138.159 277.934 138.222 277.667 138.414L277.485 138.544L232.938 163.068L232.833 163.118C229.063 164.896 222.699 166.933 215.436 167.53C208.169 168.126 199.703 167.302 192.004 163.01L186.842 160.187C183.655 158.444 179.272 156.046 174.483 153.425C164.909 148.183 153.711 142.048 147.234 138.478C146.717 138.192 146.361 138.004 146.109 137.88C145.959 137.966 145.789 138.068 145.572 138.197L145.454 138.268C145.115 138.47 144.709 138.71 144.234 138.979C139.158 141.852 132.903 145.377 127.918 148.183C125.425 149.587 123.249 150.81 121.697 151.683L119.384 152.983Z" fill="white"/>
<path fill-rule="evenodd" clip-rule="evenodd" d="M148.554 193.002C149.348 193.304 150.2 193.763 151.037 194.225C157.5 197.787 168.684 203.916 178.256 209.156C183.041 211.776 187.422 214.173 190.607 215.915L195.779 218.743C195.779 218.743 195.78 218.744 193.988 222.027L195.78 218.744L195.795 218.752L195.81 218.76C201.816 222.114 208.673 222.883 214.993 222.364C221.252 221.85 226.691 220.094 229.704 218.691L273.653 194.494C277.579 191.808 281.4 193.086 283.327 194.563L302.841 205.292C308.33 207.839 312.168 210.659 314.374 213.846C316.739 217.262 317.067 220.878 315.899 224.187C314.812 227.266 312.541 229.794 310.224 231.718C307.905 233.643 305.25 235.204 302.854 236.321L233.262 275.193C216.231 285.242 198.895 279.461 192.079 275.167L115.579 232.669L115.397 232.537C112.57 230.487 110.586 228.213 109.473 225.721C108.34 223.184 108.22 220.662 108.746 218.375C109.749 214.011 113.013 210.742 115.455 209.042L115.603 208.939L115.76 208.85L117.59 212.113C115.76 208.85 115.76 208.85 115.76 208.85L118.239 207.457C119.79 206.584 121.964 205.362 124.455 203.96C129.437 201.155 135.683 197.635 140.749 194.767C141.149 194.541 141.498 194.334 141.824 194.14C141.863 194.117 141.901 194.094 141.94 194.07C142.217 193.905 142.509 193.731 142.777 193.58C143.346 193.258 144.242 192.777 145.35 192.605C146.591 192.413 147.665 192.663 148.554 193.002ZM119.59 215.28C117.999 216.428 116.446 218.255 116.032 220.052C115.844 220.871 115.877 221.722 116.299 222.668C116.729 223.631 117.661 224.903 119.61 226.349L195.901 268.732L195.997 268.792C201.25 272.142 215.576 276.963 229.498 268.727L229.538 268.703L299.459 229.648L299.59 229.588C301.559 228.679 303.687 227.422 305.45 225.959C307.257 224.458 308.396 222.977 308.849 221.694C309.221 220.64 309.218 219.538 308.229 218.108C307.097 216.474 304.596 214.341 299.59 212.032L299.47 211.977L279.024 200.735L278.747 200.479C278.744 200.477 278.74 200.475 278.737 200.473C278.69 200.451 278.631 200.431 278.568 200.423C278.514 200.416 278.446 200.415 278.352 200.438C278.26 200.461 278.078 200.523 277.811 200.715L277.629 200.846L233.1 225.362L232.994 225.412C229.226 227.189 222.864 229.226 215.605 229.822C208.34 230.419 199.877 229.595 192.181 225.303L187.021 222.481C183.836 220.739 179.454 218.342 174.668 215.721C165.097 210.482 153.903 204.348 147.429 200.779C146.912 200.494 146.557 200.306 146.305 200.181C146.155 200.268 145.984 200.37 145.768 200.499C145.73 200.521 145.69 200.545 145.649 200.569C145.311 200.771 144.905 201.012 144.43 201.28C139.357 204.152 133.103 207.676 128.12 210.482C125.628 211.884 123.454 213.108 121.902 213.98L119.59 215.28Z" fill="white"/>
<path d="M134.108 359.129C129.188 359.129 125.343 358.394 122.572 356.926C119.858 355.401 117.935 353.086 116.804 349.979C115.73 346.817 115.193 342.807 115.193 337.95C115.193 333.093 115.73 329.111 116.804 326.005C117.935 322.843 119.858 320.527 122.572 319.059C125.343 317.534 129.188 316.771 134.108 316.771H151.665V355.74H145.05V319.906L148.442 322.786H134.108C130.828 322.786 128.283 323.181 126.474 323.972C124.721 324.763 123.505 326.259 122.827 328.462C122.148 330.608 121.809 333.771 121.809 337.95C121.809 342.129 122.148 345.32 122.827 347.523C123.505 349.669 124.721 351.137 126.474 351.928C128.283 352.719 130.828 353.114 134.108 353.114H160.826V359.129H134.108ZM160.826 359.129V353.114C161.561 353.114 162.014 353.396 162.183 353.961C162.409 354.469 162.522 355.175 162.522 356.079C162.522 356.982 162.409 357.717 162.183 358.281C162.014 358.846 161.561 359.129 160.826 359.129ZM125.88 309.147V301.523H132.496V309.147H125.88ZM137.501 309.147V301.523H144.117V309.147H137.501Z" fill="white"/>
<path d="M224.028 359.129V353.114H233.188V359.129H224.028ZM160.837 359.129V353.114H223.519L217.412 358.62V338.712C217.412 335.154 216.903 332.218 215.885 329.902C214.924 327.53 213.453 325.751 211.474 324.565C209.552 323.379 207.12 322.786 204.18 322.786C201.692 322.786 199.373 323.21 197.224 324.057C195.132 324.847 193.181 325.92 191.372 327.276C189.562 328.575 187.866 330.043 186.283 331.681C184.756 333.262 183.342 334.872 182.042 336.51C180.741 338.148 179.554 339.644 178.479 341L176.359 334.985C177.772 333.234 179.186 331.483 180.6 329.733C182.07 327.982 183.597 326.344 185.18 324.819C186.763 323.238 188.488 321.854 190.354 320.668C192.277 319.482 194.369 318.55 196.631 317.873C198.893 317.138 201.437 316.771 204.265 316.771C208.279 316.771 211.559 317.449 214.104 318.804C216.705 320.16 218.712 321.967 220.126 324.226C221.596 326.429 222.614 328.801 223.179 331.342C223.745 333.884 224.028 336.34 224.028 338.712V359.129H160.837ZM172.881 353.114V316.771H179.497V353.114H172.881ZM160.837 359.129C160.102 359.129 159.649 358.846 159.48 358.281C159.253 357.717 159.14 356.982 159.14 356.079C159.14 355.175 159.253 354.469 159.48 353.961C159.649 353.396 160.102 353.114 160.837 353.114V359.129ZM233.188 359.129V353.114C233.923 353.114 234.376 353.396 234.545 353.961C234.771 354.469 234.885 355.175 234.885 356.079C234.885 356.982 234.771 357.717 234.545 358.281C234.376 358.846 233.923 359.129 233.188 359.129Z" fill="white"/>
<path d="M248.926 359.129V353.114H258.086V359.129H248.926ZM233.149 359.129V353.114H245.363L242.31 355.571V316.771H248.926V359.129H233.149ZM233.149 359.129C232.414 359.129 231.962 358.846 231.792 358.281C231.566 357.717 231.453 356.982 231.453 356.079C231.453 355.175 231.566 354.469 231.792 353.961C231.962 353.396 232.414 353.114 233.149 353.114V359.129ZM258.086 359.129V353.114C258.821 353.114 259.274 353.396 259.443 353.961C259.669 354.469 259.783 355.175 259.783 356.079C259.783 356.982 259.669 357.717 259.443 358.281C259.274 358.846 258.821 359.129 258.086 359.129ZM242.31 309.147V301.523H248.926V309.147H242.31Z" fill="white"/>
<path d="M258.082 359.129V353.114H304.478L299.559 356.587V338.374C299.559 334.42 299.106 331.314 298.201 329.055C297.297 326.796 295.742 325.186 293.536 324.226C291.388 323.266 288.447 322.786 284.715 322.786C282.34 322.786 279.965 322.955 277.59 323.294C275.272 323.633 273.462 324.085 272.162 324.65L276.148 320.583C275.809 321.939 275.47 323.661 275.13 325.751C274.791 327.784 274.508 329.987 274.282 332.359C274.056 334.731 273.943 337.103 273.943 339.475C273.943 341.903 274.056 344.275 274.282 346.591C274.508 348.906 274.763 350.911 275.046 352.606C275.328 354.3 275.554 355.486 275.724 356.164L269.447 357.943C269.221 357.208 268.939 355.938 268.599 354.13C268.316 352.323 268.034 350.149 267.751 347.607C267.525 345.066 267.412 342.355 267.412 339.475C267.412 336.707 267.525 334.025 267.751 331.427C268.034 328.773 268.345 326.372 268.684 324.226C269.08 322.08 269.447 320.358 269.787 319.059C271.031 318.55 273.01 318.042 275.724 317.534C278.438 317.025 281.435 316.771 284.715 316.771C289.465 316.771 293.423 317.477 296.59 318.889C299.813 320.301 302.216 322.588 303.8 325.751C305.383 328.857 306.175 333.065 306.175 338.374V359.129H258.082ZM258.082 359.129C257.346 359.129 256.894 358.846 256.724 358.281C256.498 357.717 256.385 356.982 256.385 356.079C256.385 355.175 256.498 354.469 256.724 353.961C256.894 353.396 257.346 353.114 258.082 353.114V359.129Z" fill="white"/>
<path fill-rule="evenodd" clip-rule="evenodd" d="M7.98235 212C7.98235 324.952 99.548 416.518 212.5 416.518C325.452 416.518 417.018 324.952 417.018 212C417.018 99.048 325.452 7.48235 212.5 7.48235C99.548 7.48235 7.98235 99.048 7.98235 212ZM212.5 0C95.4156 0 0.5 94.9156 0.5 212C0.5 329.084 95.4156 424 212.5 424C329.584 424 424.5 329.084 424.5 212C424.5 94.9156 329.584 0 212.5 0Z" fill="white"/>
</svg>
