<svg width="399" height="399" viewBox="0 0 399 399" fill="none" xmlns="http://www.w3.org/2000/svg">
<path fill-rule="evenodd" clip-rule="evenodd" d="M166.667 1.912C43.928 23.846 -29.075 146.084 10.152 263.984C52.016 389.808 207.158 439.338 316.381 361.749C404.734 298.985 425.373 171.85 361.749 82.286C319.439 22.725 237.986 -10.834 166.667 1.912ZM216.241 64.575C226.204 68.738 314.19 119.002 317 122.136C324.616 130.63 319.982 134.697 272.064 161.578C194.197 205.26 207.492 205.139 132.667 162.845C80.17 133.172 77.709 131.039 85.667 122.12C88.42 119.034 91.892 116.887 113.333 105.01C117.367 102.775 134.767 93.046 152 83.388C169.233 73.731 184.833 65.158 186.667 64.338C197.5 59.4945 206.278 60.412 216.241 64.575ZM150.922 190.743C191.479 213.299 207.408 215.588 230.987 202.247C257.213 187.409 278.496 176 279.952 176C283.375 176 313.269 193.538 316.606 197.504C323.268 205.422 319.466 209.6 291.333 225.28C280.333 231.411 263.169 241.095 253.191 246.801C207.446 272.96 199.427 274.562 176.667 262.092C162.14 254.132 109.918 224.685 95.88 216.537C76.414 205.239 77.858 200.12 104.913 184.531C123.234 173.974 119.981 173.534 150.922 190.743ZM153.613 266.939C198.006 291.892 204.815 291.749 252.512 264.866L279.921 249.418L295.258 258.099C314.361 268.91 318.667 272.424 318.667 277.202C318.667 283.793 319.629 283.182 234.684 330.498L216 340.5L203.5 344.5C189.866 345.082 190.033 343.299 137.531 313.85C89.044 286.654 86.147 284.847 84.207 280.588C81.854 275.424 85.625 269.824 94.652 265.078C96.477 264.118 103.334 260.223 109.89 256.422C121.621 249.622 121.876 249.545 125.905 251.589C128.157 252.732 140.626 259.639 153.613 266.939Z" fill="#FFFFFF"/>
</svg>
